<svg xmlns="http://www.w3.org/2000/svg" xmlns:xlink="http://www.w3.org/1999/xlink" width="120" zoomAndPan="magnify" viewBox="0 0 90 30.000001" height="40" preserveAspectRatio="xMidYMid meet" version="1.0"><defs><g/></defs><g fill="#000000" fill-opacity="1"><g transform="translate(9.911793, 20.321555)"><g><path d="M 7.203125 -5.1875 L 7.328125 -8.453125 L 7.1875 -8.453125 L 5.015625 -2.453125 L 2.84375 -8.453125 L 2.6875 -8.453125 L 2.828125 -5.1875 L 2.828125 0 L 0.65625 0 L 0.65625 -11.65625 L 3.609375 -11.65625 L 5.046875 -7.734375 L 5.171875 -7.734375 L 6.609375 -11.65625 L 9.375 -11.65625 L 9.375 0 L 7.203125 0 Z M 7.203125 -5.1875 "/></g></g></g><g fill="#000000" fill-opacity="1"><g transform="translate(19.934779, 20.321555)"><g><path d="M 7.265625 0 L 6.53125 -2.8125 L 3.34375 -2.8125 L 2.625 0 L 0.078125 0 L 3.234375 -11.65625 L 6.78125 -11.65625 L 9.9375 0 Z M 5.015625 -9.234375 L 4.875 -9.234375 L 3.734375 -4.828125 L 6.140625 -4.828125 Z M 5.015625 -9.234375 "/></g></g></g><g fill="#000000" fill-opacity="1"><g transform="translate(29.957766, 20.321555)"><g><path d="M 6.265625 -9.609375 L 6.265625 0 L 3.765625 0 L 3.765625 -9.609375 L 0.40625 -9.609375 L 0.40625 -11.65625 L 9.625 -11.65625 L 9.625 -9.609375 Z M 6.265625 -9.609375 "/></g></g></g><g fill="#000000" fill-opacity="1"><g transform="translate(39.980752, 20.321555)"><g><path d="M 5.28125 0.203125 C 3.71875 0.203125 2.5625 -0.320312 1.8125 -1.375 C 1.0625 -2.425781 0.6875 -3.910156 0.6875 -5.828125 C 0.6875 -7.742188 1.0625 -9.226562 1.8125 -10.28125 C 2.5625 -11.332031 3.71875 -11.859375 5.28125 -11.859375 C 5.882812 -11.859375 6.414062 -11.773438 6.875 -11.609375 C 7.332031 -11.453125 7.726562 -11.226562 8.0625 -10.9375 C 8.394531 -10.644531 8.671875 -10.289062 8.890625 -9.875 C 9.109375 -9.46875 9.28125 -9.007812 9.40625 -8.5 L 7.0625 -7.9375 C 7 -8.21875 6.921875 -8.472656 6.828125 -8.703125 C 6.742188 -8.929688 6.628906 -9.128906 6.484375 -9.296875 C 6.347656 -9.460938 6.175781 -9.59375 5.96875 -9.6875 C 5.757812 -9.789062 5.515625 -9.84375 5.234375 -9.84375 C 4.546875 -9.84375 4.0625 -9.578125 3.78125 -9.046875 C 3.5 -8.515625 3.359375 -7.78125 3.359375 -6.84375 L 3.359375 -4.8125 C 3.359375 -3.875 3.5 -3.140625 3.78125 -2.609375 C 4.0625 -2.085938 4.546875 -1.828125 5.234375 -1.828125 C 5.804688 -1.828125 6.222656 -2.003906 6.484375 -2.359375 C 6.742188 -2.710938 6.9375 -3.164062 7.0625 -3.71875 L 9.40625 -3.15625 C 9.28125 -2.644531 9.109375 -2.179688 8.890625 -1.765625 C 8.671875 -1.359375 8.394531 -1.003906 8.0625 -0.703125 C 7.726562 -0.410156 7.332031 -0.1875 6.875 -0.03125 C 6.414062 0.125 5.882812 0.203125 5.28125 0.203125 Z M 5.28125 0.203125 "/></g></g></g><g fill="#000000" fill-opacity="1"><g transform="translate(50.003739, 20.321555)"><g><path d="M 6.484375 -4.875 L 3.546875 -4.875 L 3.546875 0 L 1.015625 0 L 1.015625 -11.65625 L 3.546875 -11.65625 L 3.546875 -6.9375 L 6.484375 -6.9375 L 6.484375 -11.65625 L 9 -11.65625 L 9 0 L 6.484375 0 Z M 6.484375 -4.875 "/></g></g></g><g fill="#000000" fill-opacity="1"><g transform="translate(60.026725, 20.321555)"><g><path d="M 1.34375 0 L 1.34375 -11.65625 L 8.78125 -11.65625 L 8.78125 -9.609375 L 3.84375 -9.609375 L 3.84375 -6.9375 L 8.625 -6.9375 L 8.625 -4.875 L 3.84375 -4.875 L 3.84375 -2.046875 L 8.78125 -2.046875 L 8.78125 0 Z M 1.34375 0 "/></g></g></g><g fill="#000000" fill-opacity="1"><g transform="translate(70.049712, 20.321555)"><g><path d="M 4.828125 0.203125 C 3.847656 0.203125 2.992188 0.0390625 2.265625 -0.28125 C 1.546875 -0.601562 0.960938 -1.046875 0.515625 -1.609375 L 1.96875 -3.203125 C 2.394531 -2.734375 2.859375 -2.390625 3.359375 -2.171875 C 3.867188 -1.953125 4.382812 -1.84375 4.90625 -1.84375 C 5.507812 -1.84375 5.96875 -1.972656 6.28125 -2.234375 C 6.59375 -2.503906 6.75 -2.890625 6.75 -3.390625 C 6.75 -3.804688 6.628906 -4.117188 6.390625 -4.328125 C 6.148438 -4.535156 5.742188 -4.6875 5.171875 -4.78125 L 3.953125 -4.984375 C 2.910156 -5.160156 2.15625 -5.546875 1.6875 -6.140625 C 1.21875 -6.734375 0.984375 -7.457031 0.984375 -8.3125 C 0.984375 -9.4375 1.347656 -10.304688 2.078125 -10.921875 C 2.816406 -11.546875 3.847656 -11.859375 5.171875 -11.859375 C 6.078125 -11.859375 6.863281 -11.71875 7.53125 -11.4375 C 8.195312 -11.164062 8.738281 -10.789062 9.15625 -10.3125 L 7.734375 -8.71875 C 7.421875 -9.0625 7.050781 -9.332031 6.625 -9.53125 C 6.207031 -9.726562 5.726562 -9.828125 5.1875 -9.828125 C 4.0625 -9.828125 3.5 -9.363281 3.5 -8.4375 C 3.5 -8.03125 3.625 -7.726562 3.875 -7.53125 C 4.132812 -7.332031 4.546875 -7.179688 5.109375 -7.078125 L 6.328125 -6.859375 C 7.273438 -6.691406 8.003906 -6.335938 8.515625 -5.796875 C 9.023438 -5.253906 9.28125 -4.519531 9.28125 -3.59375 C 9.28125 -3.039062 9.1875 -2.535156 9 -2.078125 C 8.8125 -1.617188 8.523438 -1.21875 8.140625 -0.875 C 7.765625 -0.539062 7.300781 -0.273438 6.75 -0.078125 C 6.195312 0.109375 5.554688 0.203125 4.828125 0.203125 Z M 4.828125 0.203125 "/></g></g></g></svg>