<svg xmlns="http://www.w3.org/2000/svg" xmlns:xlink="http://www.w3.org/1999/xlink" width="120" zoomAndPan="magnify" viewBox="0 0 90 30.000001" height="40" preserveAspectRatio="xMidYMid meet" version="1.0"><defs><g/></defs><g fill="#000000" fill-opacity="1"><g transform="translate(9.911793, 20.321551)"><g><path d="M 3.421875 -11.65625 L 3.421875 -4.28125 C 3.421875 -3.90625 3.429688 -3.566406 3.453125 -3.265625 C 3.484375 -2.960938 3.550781 -2.703125 3.65625 -2.484375 C 3.769531 -2.273438 3.929688 -2.113281 4.140625 -2 C 4.347656 -1.882812 4.640625 -1.828125 5.015625 -1.828125 C 5.378906 -1.828125 5.664062 -1.882812 5.875 -2 C 6.09375 -2.113281 6.253906 -2.273438 6.359375 -2.484375 C 6.460938 -2.703125 6.523438 -2.960938 6.546875 -3.265625 C 6.578125 -3.566406 6.59375 -3.90625 6.59375 -4.28125 L 6.59375 -11.65625 L 9.109375 -11.65625 L 9.109375 -4.609375 C 9.109375 -3.804688 9.050781 -3.101562 8.9375 -2.5 C 8.832031 -1.90625 8.628906 -1.40625 8.328125 -1 C 8.035156 -0.601562 7.617188 -0.300781 7.078125 -0.09375 C 6.546875 0.101562 5.859375 0.203125 5.015625 0.203125 C 4.160156 0.203125 3.46875 0.101562 2.9375 -0.09375 C 2.40625 -0.300781 1.988281 -0.601562 1.6875 -1 C 1.382812 -1.40625 1.179688 -1.90625 1.078125 -2.5 C 0.972656 -3.101562 0.921875 -3.804688 0.921875 -4.609375 L 0.921875 -11.65625 Z M 3.421875 -11.65625 "/></g></g></g><g fill="#000000" fill-opacity="1"><g transform="translate(19.934779, 20.321551)"><g><path d="M 3.34375 -7.75 L 3.15625 -7.75 L 3.15625 0 L 1.015625 0 L 1.015625 -11.65625 L 4.03125 -11.65625 L 6.6875 -3.90625 L 6.859375 -3.90625 L 6.859375 -11.65625 L 9 -11.65625 L 9 0 L 6 0 Z M 3.34375 -7.75 "/></g></g></g><g fill="#000000" fill-opacity="1"><g transform="translate(29.957766, 20.321551)"><g><path d="M 5.28125 0.203125 C 3.71875 0.203125 2.5625 -0.320312 1.8125 -1.375 C 1.0625 -2.425781 0.6875 -3.910156 0.6875 -5.828125 C 0.6875 -7.742188 1.0625 -9.226562 1.8125 -10.28125 C 2.5625 -11.332031 3.71875 -11.859375 5.28125 -11.859375 C 5.882812 -11.859375 6.414062 -11.773438 6.875 -11.609375 C 7.332031 -11.453125 7.726562 -11.226562 8.0625 -10.9375 C 8.394531 -10.644531 8.671875 -10.289062 8.890625 -9.875 C 9.109375 -9.46875 9.28125 -9.007812 9.40625 -8.5 L 7.0625 -7.9375 C 7 -8.21875 6.921875 -8.472656 6.828125 -8.703125 C 6.742188 -8.929688 6.628906 -9.128906 6.484375 -9.296875 C 6.347656 -9.460938 6.175781 -9.59375 5.96875 -9.6875 C 5.757812 -9.789062 5.515625 -9.84375 5.234375 -9.84375 C 4.546875 -9.84375 4.0625 -9.578125 3.78125 -9.046875 C 3.5 -8.515625 3.359375 -7.78125 3.359375 -6.84375 L 3.359375 -4.8125 C 3.359375 -3.875 3.5 -3.140625 3.78125 -2.609375 C 4.0625 -2.085938 4.546875 -1.828125 5.234375 -1.828125 C 5.804688 -1.828125 6.222656 -2.003906 6.484375 -2.359375 C 6.742188 -2.710938 6.9375 -3.164062 7.0625 -3.71875 L 9.40625 -3.15625 C 9.28125 -2.644531 9.109375 -2.179688 8.890625 -1.765625 C 8.671875 -1.359375 8.394531 -1.003906 8.0625 -0.703125 C 7.726562 -0.410156 7.332031 -0.1875 6.875 -0.03125 C 6.414062 0.125 5.882812 0.203125 5.28125 0.203125 Z M 5.28125 0.203125 "/></g></g></g><g fill="#000000" fill-opacity="1"><g transform="translate(39.980752, 20.321551)"><g><path d="M 5.015625 0.203125 C 3.453125 0.203125 2.300781 -0.320312 1.5625 -1.375 C 0.820312 -2.4375 0.453125 -3.921875 0.453125 -5.828125 C 0.453125 -7.734375 0.820312 -9.210938 1.5625 -10.265625 C 2.300781 -11.328125 3.453125 -11.859375 5.015625 -11.859375 C 6.566406 -11.859375 7.710938 -11.328125 8.453125 -10.265625 C 9.203125 -9.210938 9.578125 -7.734375 9.578125 -5.828125 C 9.578125 -3.921875 9.203125 -2.4375 8.453125 -1.375 C 7.710938 -0.320312 6.566406 0.203125 5.015625 0.203125 Z M 5.015625 -1.828125 C 5.722656 -1.828125 6.210938 -2.085938 6.484375 -2.609375 C 6.753906 -3.140625 6.890625 -3.878906 6.890625 -4.828125 L 6.890625 -6.84375 C 6.890625 -7.78125 6.753906 -8.515625 6.484375 -9.046875 C 6.210938 -9.578125 5.722656 -9.84375 5.015625 -9.84375 C 4.296875 -9.84375 3.800781 -9.578125 3.53125 -9.046875 C 3.257812 -8.515625 3.125 -7.78125 3.125 -6.84375 L 3.125 -4.8125 C 3.125 -3.875 3.257812 -3.140625 3.53125 -2.609375 C 3.800781 -2.085938 4.296875 -1.828125 5.015625 -1.828125 Z M 5.015625 -1.828125 "/></g></g></g><g fill="#000000" fill-opacity="1"><g transform="translate(50.003739, 20.321551)"><g><path d="M 3.234375 0 L 0.15625 -11.65625 L 2.9375 -11.65625 L 4.3125 -5.734375 L 5 -2.375 L 5.125 -2.375 L 5.828125 -5.734375 L 7.21875 -11.65625 L 9.875 -11.65625 L 6.78125 0 Z M 3.234375 0 "/></g></g></g><g fill="#000000" fill-opacity="1"><g transform="translate(60.026725, 20.321551)"><g><path d="M 1.34375 0 L 1.34375 -11.65625 L 8.78125 -11.65625 L 8.78125 -9.609375 L 3.84375 -9.609375 L 3.84375 -6.9375 L 8.625 -6.9375 L 8.625 -4.875 L 3.84375 -4.875 L 3.84375 -2.046875 L 8.78125 -2.046875 L 8.78125 0 Z M 1.34375 0 "/></g></g></g><g fill="#000000" fill-opacity="1"><g transform="translate(70.049712, 20.321551)"><g><path d="M 3.734375 0 L 1.265625 0 L 1.265625 -11.65625 L 5.78125 -11.65625 C 6.34375 -11.65625 6.847656 -11.566406 7.296875 -11.390625 C 7.742188 -11.222656 8.117188 -10.976562 8.421875 -10.65625 C 8.734375 -10.332031 8.96875 -9.941406 9.125 -9.484375 C 9.28125 -9.023438 9.359375 -8.515625 9.359375 -7.953125 C 9.359375 -7.128906 9.175781 -6.421875 8.8125 -5.828125 C 8.457031 -5.234375 7.953125 -4.84375 7.296875 -4.65625 L 9.59375 0 L 6.84375 0 L 4.890625 -4.328125 L 3.734375 -4.328125 Z M 5.171875 -6.265625 C 5.765625 -6.265625 6.175781 -6.375 6.40625 -6.59375 C 6.632812 -6.820312 6.75 -7.191406 6.75 -7.703125 L 6.75 -8.203125 C 6.75 -8.710938 6.632812 -9.078125 6.40625 -9.296875 C 6.175781 -9.523438 5.765625 -9.640625 5.171875 -9.640625 L 3.734375 -9.640625 L 3.734375 -6.265625 Z M 5.171875 -6.265625 "/></g></g></g></svg>