<svg xmlns="http://www.w3.org/2000/svg" xmlns:xlink="http://www.w3.org/1999/xlink" width="120" zoomAndPan="magnify" viewBox="0 0 90 30.000001" height="40" preserveAspectRatio="xMidYMid meet" version="1.0"><defs><g/></defs><g fill="#000000" fill-opacity="1"><g transform="translate(24.949595, 20.321553)"><g><path d="M 6.484375 -4.875 L 3.546875 -4.875 L 3.546875 0 L 1.015625 0 L 1.015625 -11.65625 L 3.546875 -11.65625 L 3.546875 -6.9375 L 6.484375 -6.9375 L 6.484375 -11.65625 L 9 -11.65625 L 9 0 L 6.484375 0 Z M 6.484375 -4.875 "/></g></g></g><g fill="#000000" fill-opacity="1"><g transform="translate(34.972582, 20.321553)"><g><path d="M 5.015625 0.203125 C 3.453125 0.203125 2.300781 -0.320312 1.5625 -1.375 C 0.820312 -2.4375 0.453125 -3.921875 0.453125 -5.828125 C 0.453125 -7.734375 0.820312 -9.210938 1.5625 -10.265625 C 2.300781 -11.328125 3.453125 -11.859375 5.015625 -11.859375 C 6.566406 -11.859375 7.710938 -11.328125 8.453125 -10.265625 C 9.203125 -9.210938 9.578125 -7.734375 9.578125 -5.828125 C 9.578125 -3.921875 9.203125 -2.4375 8.453125 -1.375 C 7.710938 -0.320312 6.566406 0.203125 5.015625 0.203125 Z M 5.015625 -1.828125 C 5.722656 -1.828125 6.210938 -2.085938 6.484375 -2.609375 C 6.753906 -3.140625 6.890625 -3.878906 6.890625 -4.828125 L 6.890625 -6.84375 C 6.890625 -7.78125 6.753906 -8.515625 6.484375 -9.046875 C 6.210938 -9.578125 5.722656 -9.84375 5.015625 -9.84375 C 4.296875 -9.84375 3.800781 -9.578125 3.53125 -9.046875 C 3.257812 -8.515625 3.125 -7.78125 3.125 -6.84375 L 3.125 -4.8125 C 3.125 -3.875 3.257812 -3.140625 3.53125 -2.609375 C 3.800781 -2.085938 4.296875 -1.828125 5.015625 -1.828125 Z M 5.015625 -1.828125 "/></g></g></g><g fill="#000000" fill-opacity="1"><g transform="translate(44.995568, 20.321553)"><g><path d="M 7.203125 -5.1875 L 7.328125 -8.453125 L 7.1875 -8.453125 L 5.015625 -2.453125 L 2.84375 -8.453125 L 2.6875 -8.453125 L 2.828125 -5.1875 L 2.828125 0 L 0.65625 0 L 0.65625 -11.65625 L 3.609375 -11.65625 L 5.046875 -7.734375 L 5.171875 -7.734375 L 6.609375 -11.65625 L 9.375 -11.65625 L 9.375 0 L 7.203125 0 Z M 7.203125 -5.1875 "/></g></g></g><g fill="#000000" fill-opacity="1"><g transform="translate(55.018555, 20.321553)"><g><path d="M 1.34375 0 L 1.34375 -11.65625 L 8.78125 -11.65625 L 8.78125 -9.609375 L 3.84375 -9.609375 L 3.84375 -6.9375 L 8.625 -6.9375 L 8.625 -4.875 L 3.84375 -4.875 L 3.84375 -2.046875 L 8.78125 -2.046875 L 8.78125 0 Z M 1.34375 0 "/></g></g></g></svg>