<svg xmlns="http://www.w3.org/2000/svg" xmlns:xlink="http://www.w3.org/1999/xlink" width="120" zoomAndPan="magnify" viewBox="0 0 90 30.000001" height="40" preserveAspectRatio="xMidYMid meet" version="1.0"><defs><g/></defs><g fill="#000000" fill-opacity="1"><g transform="translate(9.911793, 20.321548)"><g><path d="M 1.265625 0 L 1.265625 -11.65625 L 5.78125 -11.65625 C 6.34375 -11.65625 6.847656 -11.566406 7.296875 -11.390625 C 7.742188 -11.222656 8.117188 -10.976562 8.421875 -10.65625 C 8.734375 -10.332031 8.96875 -9.941406 9.125 -9.484375 C 9.28125 -9.023438 9.359375 -8.515625 9.359375 -7.953125 C 9.359375 -7.378906 9.28125 -6.863281 9.125 -6.40625 C 8.96875 -5.957031 8.734375 -5.570312 8.421875 -5.25 C 8.117188 -4.925781 7.742188 -4.675781 7.296875 -4.5 C 6.847656 -4.332031 6.34375 -4.25 5.78125 -4.25 L 3.796875 -4.25 L 3.796875 0 Z M 3.796875 -6.265625 L 5.140625 -6.265625 C 5.734375 -6.265625 6.144531 -6.375 6.375 -6.59375 C 6.601562 -6.820312 6.71875 -7.191406 6.71875 -7.703125 L 6.71875 -8.203125 C 6.71875 -8.710938 6.601562 -9.078125 6.375 -9.296875 C 6.144531 -9.523438 5.734375 -9.640625 5.140625 -9.640625 L 3.796875 -9.640625 Z M 3.796875 -6.265625 "/></g></g></g><g fill="#000000" fill-opacity="1"><g transform="translate(19.934779, 20.321548)"><g><path d="M 3.734375 0 L 1.265625 0 L 1.265625 -11.65625 L 5.78125 -11.65625 C 6.34375 -11.65625 6.847656 -11.566406 7.296875 -11.390625 C 7.742188 -11.222656 8.117188 -10.976562 8.421875 -10.65625 C 8.734375 -10.332031 8.96875 -9.941406 9.125 -9.484375 C 9.28125 -9.023438 9.359375 -8.515625 9.359375 -7.953125 C 9.359375 -7.128906 9.175781 -6.421875 8.8125 -5.828125 C 8.457031 -5.234375 7.953125 -4.84375 7.296875 -4.65625 L 9.59375 0 L 6.84375 0 L 4.890625 -4.328125 L 3.734375 -4.328125 Z M 5.171875 -6.265625 C 5.765625 -6.265625 6.175781 -6.375 6.40625 -6.59375 C 6.632812 -6.820312 6.75 -7.191406 6.75 -7.703125 L 6.75 -8.203125 C 6.75 -8.710938 6.632812 -9.078125 6.40625 -9.296875 C 6.175781 -9.523438 5.765625 -9.640625 5.171875 -9.640625 L 3.734375 -9.640625 L 3.734375 -6.265625 Z M 5.171875 -6.265625 "/></g></g></g><g fill="#000000" fill-opacity="1"><g transform="translate(29.957766, 20.321548)"><g><path d="M 5.015625 0.203125 C 3.453125 0.203125 2.300781 -0.320312 1.5625 -1.375 C 0.820312 -2.4375 0.453125 -3.921875 0.453125 -5.828125 C 0.453125 -7.734375 0.820312 -9.210938 1.5625 -10.265625 C 2.300781 -11.328125 3.453125 -11.859375 5.015625 -11.859375 C 6.566406 -11.859375 7.710938 -11.328125 8.453125 -10.265625 C 9.203125 -9.210938 9.578125 -7.734375 9.578125 -5.828125 C 9.578125 -3.921875 9.203125 -2.4375 8.453125 -1.375 C 7.710938 -0.320312 6.566406 0.203125 5.015625 0.203125 Z M 5.015625 -1.828125 C 5.722656 -1.828125 6.210938 -2.085938 6.484375 -2.609375 C 6.753906 -3.140625 6.890625 -3.878906 6.890625 -4.828125 L 6.890625 -6.84375 C 6.890625 -7.78125 6.753906 -8.515625 6.484375 -9.046875 C 6.210938 -9.578125 5.722656 -9.84375 5.015625 -9.84375 C 4.296875 -9.84375 3.800781 -9.578125 3.53125 -9.046875 C 3.257812 -8.515625 3.125 -7.78125 3.125 -6.84375 L 3.125 -4.8125 C 3.125 -3.875 3.257812 -3.140625 3.53125 -2.609375 C 3.800781 -2.085938 4.296875 -1.828125 5.015625 -1.828125 Z M 5.015625 -1.828125 "/></g></g></g><g fill="#000000" fill-opacity="1"><g transform="translate(39.980752, 20.321548)"><g><path d="M 1.34375 0 L 1.34375 -11.65625 L 9.0625 -11.65625 L 9.0625 -9.609375 L 3.84375 -9.609375 L 3.84375 -6.9375 L 8.515625 -6.9375 L 8.515625 -4.875 L 3.84375 -4.875 L 3.84375 0 Z M 1.34375 0 "/></g></g></g><g fill="#000000" fill-opacity="1"><g transform="translate(50.003739, 20.321548)"><g><path d="M 1.25 0 L 1.25 -1.859375 L 3.765625 -1.859375 L 3.765625 -9.8125 L 1.25 -9.8125 L 1.25 -11.65625 L 8.765625 -11.65625 L 8.765625 -9.8125 L 6.265625 -9.8125 L 6.265625 -1.859375 L 8.765625 -1.859375 L 8.765625 0 Z M 1.25 0 "/></g></g></g><g fill="#000000" fill-opacity="1"><g transform="translate(60.026725, 20.321548)"><g><path d="M 1.53125 0 L 1.53125 -11.65625 L 4.0625 -11.65625 L 4.0625 -2.046875 L 9.0625 -2.046875 L 9.0625 0 Z M 1.53125 0 "/></g></g></g><g fill="#000000" fill-opacity="1"><g transform="translate(70.049712, 20.321548)"><g><path d="M 1.34375 0 L 1.34375 -11.65625 L 8.78125 -11.65625 L 8.78125 -9.609375 L 3.84375 -9.609375 L 3.84375 -6.9375 L 8.625 -6.9375 L 8.625 -4.875 L 3.84375 -4.875 L 3.84375 -2.046875 L 8.78125 -2.046875 L 8.78125 0 Z M 1.34375 0 "/></g></g></g></svg>