<svg xmlns="http://www.w3.org/2000/svg" xmlns:xlink="http://www.w3.org/1999/xlink" width="120" zoomAndPan="magnify" viewBox="0 0 90 30.000001" height="40" preserveAspectRatio="xMidYMid meet" version="1.0"><defs><g/><clipPath id="c27be079fd"><path d="M 1.453125 0 L 88.546875 0 L 88.546875 29.03125 L 1.453125 29.03125 Z M 1.453125 0 " clip-rule="nonzero"/></clipPath></defs><g clip-path="url(#c27be079fd)"><path fill="#ffffff" d="M 1.453125 0 L 88.546875 0 L 88.546875 29.03125 L 1.453125 29.03125 Z M 1.453125 0 " fill-opacity="1" fill-rule="nonzero"/><path fill="#ffffff" d="M 1.453125 0 L 88.546875 0 L 88.546875 29.03125 L 1.453125 29.03125 Z M 1.453125 0 " fill-opacity="1" fill-rule="nonzero"/></g><g fill="#000000" fill-opacity="1"><g transform="translate(4.899192, 20.322582)"><g><path d="M 1.34375 0 L 1.34375 -11.65625 L 8.78125 -11.65625 L 8.78125 -9.609375 L 3.84375 -9.609375 L 3.84375 -6.9375 L 8.625 -6.9375 L 8.625 -4.875 L 3.84375 -4.875 L 3.84375 -2.046875 L 8.78125 -2.046875 L 8.78125 0 Z M 1.34375 0 "/></g></g></g><g fill="#000000" fill-opacity="1"><g transform="translate(14.922179, 20.322582)"><g><path d="M 1.0625 -11.65625 L 4.828125 -11.65625 C 6.398438 -11.65625 7.5625 -11.15625 8.3125 -10.15625 C 9.070312 -9.15625 9.453125 -7.710938 9.453125 -5.828125 C 9.453125 -3.941406 9.070312 -2.5 8.3125 -1.5 C 7.5625 -0.5 6.398438 0 4.828125 0 L 1.0625 0 Z M 4.65625 -1.96875 C 5.40625 -1.96875 5.953125 -2.207031 6.296875 -2.6875 C 6.640625 -3.164062 6.8125 -3.863281 6.8125 -4.78125 L 6.8125 -6.890625 C 6.8125 -7.796875 6.640625 -8.488281 6.296875 -8.96875 C 5.953125 -9.445312 5.40625 -9.6875 4.65625 -9.6875 L 3.546875 -9.6875 L 3.546875 -1.96875 Z M 4.65625 -1.96875 "/></g></g></g><g fill="#000000" fill-opacity="1"><g transform="translate(24.945165, 20.322582)"><g><path d="M 6.859375 -1.65625 L 6.71875 -1.65625 C 6.613281 -1.40625 6.488281 -1.171875 6.34375 -0.953125 C 6.195312 -0.734375 6.019531 -0.535156 5.8125 -0.359375 C 5.601562 -0.179688 5.351562 -0.046875 5.0625 0.046875 C 4.78125 0.148438 4.460938 0.203125 4.109375 0.203125 C 3.535156 0.203125 3.03125 0.0703125 2.59375 -0.1875 C 2.15625 -0.457031 1.785156 -0.847656 1.484375 -1.359375 C 1.179688 -1.878906 0.953125 -2.503906 0.796875 -3.234375 C 0.648438 -3.972656 0.578125 -4.804688 0.578125 -5.734375 C 0.578125 -7.710938 0.9375 -9.226562 1.65625 -10.28125 C 2.382812 -11.332031 3.507812 -11.859375 5.03125 -11.859375 C 5.625 -11.859375 6.148438 -11.773438 6.609375 -11.609375 C 7.066406 -11.453125 7.457031 -11.222656 7.78125 -10.921875 C 8.113281 -10.628906 8.382812 -10.273438 8.59375 -9.859375 C 8.8125 -9.453125 8.984375 -9 9.109375 -8.5 L 6.765625 -7.9375 C 6.703125 -8.175781 6.625 -8.410156 6.53125 -8.640625 C 6.445312 -8.867188 6.335938 -9.070312 6.203125 -9.25 C 6.078125 -9.425781 5.910156 -9.566406 5.703125 -9.671875 C 5.503906 -9.785156 5.265625 -9.84375 4.984375 -9.84375 C 4.347656 -9.84375 3.894531 -9.578125 3.625 -9.046875 C 3.363281 -8.523438 3.234375 -7.789062 3.234375 -6.84375 L 3.234375 -4.9375 C 3.234375 -4 3.375 -3.242188 3.65625 -2.671875 C 3.945312 -2.109375 4.453125 -1.828125 5.171875 -1.828125 C 5.742188 -1.828125 6.164062 -1.992188 6.4375 -2.328125 C 6.71875 -2.660156 6.859375 -3.085938 6.859375 -3.609375 L 6.859375 -4.453125 L 4.875 -4.453125 L 4.875 -6.234375 L 9.109375 -6.234375 L 9.109375 0 L 6.859375 0 Z M 6.859375 -1.65625 "/></g></g></g><g fill="#000000" fill-opacity="1"><g transform="translate(34.968152, 20.322582)"><g><path d="M 1.34375 0 L 1.34375 -11.65625 L 8.78125 -11.65625 L 8.78125 -9.609375 L 3.84375 -9.609375 L 3.84375 -6.9375 L 8.625 -6.9375 L 8.625 -4.875 L 3.84375 -4.875 L 3.84375 -2.046875 L 8.78125 -2.046875 L 8.78125 0 Z M 1.34375 0 "/></g></g></g><g fill="#000000" fill-opacity="1"><g transform="translate(44.991138, 20.322582)"><g><path d="M 1.34375 0 L 1.34375 -11.65625 L 9.0625 -11.65625 L 9.0625 -9.609375 L 3.84375 -9.609375 L 3.84375 -6.9375 L 8.515625 -6.9375 L 8.515625 -4.875 L 3.84375 -4.875 L 3.84375 0 Z M 1.34375 0 "/></g></g></g><g fill="#000000" fill-opacity="1"><g transform="translate(55.014125, 20.322582)"><g><path d="M 1.53125 0 L 1.53125 -11.65625 L 4.0625 -11.65625 L 4.0625 -2.046875 L 9.0625 -2.046875 L 9.0625 0 Z M 1.53125 0 "/></g></g></g><g fill="#000000" fill-opacity="1"><g transform="translate(65.037111, 20.322582)"><g><path d="M 1.25 0 L 1.25 -1.859375 L 3.765625 -1.859375 L 3.765625 -9.8125 L 1.25 -9.8125 L 1.25 -11.65625 L 8.765625 -11.65625 L 8.765625 -9.8125 L 6.265625 -9.8125 L 6.265625 -1.859375 L 8.765625 -1.859375 L 8.765625 0 Z M 1.25 0 "/></g></g></g><g fill="#000000" fill-opacity="1"><g transform="translate(75.060098, 20.322582)"><g><path d="M 9.875 0 L 7.015625 0 L 5.8125 -2.328125 L 5 -4.15625 L 4.84375 -4.15625 L 4.015625 -2.328125 L 2.765625 0 L 0.15625 0 L 3.421875 -6.03125 L 0.375 -11.65625 L 3.21875 -11.65625 L 4.171875 -9.8125 L 5.03125 -7.9375 L 5.15625 -7.9375 L 6.03125 -9.8125 L 7.03125 -11.65625 L 9.65625 -11.65625 L 6.59375 -6 Z M 9.875 0 "/></g></g></g></svg>